<?xml version="1.0" encoding="utf-8"?>
<!-- Generator: Adobe Illustrator 15.0.0, SVG Export Plug-In . SVG Version: 6.00 Build 0)  -->
<!DOCTYPE svg PUBLIC "-//W3C//DTD SVG 1.1//EN" "http://www.w3.org/Graphics/SVG/1.1/DTD/svg11.dtd">
<svg version="1.1" id="图层_1" xmlns="http://www.w3.org/2000/svg" xmlns:xlink="http://www.w3.org/1999/xlink" x="0px" y="0px"
	 width="200px" height="200px" viewBox="0 0 200 200" enable-background="new 0 0 200 200" xml:space="preserve">
<path fill="#313B3D" d="M161.418,68.043c2.754,2.728,7.192,2.728,9.947,0l0.2-0.2c2.733-2.742,2.733-7.18,0-9.922l-56.018-55.87
	c-2.755-2.728-7.192-2.728-9.948,0L105.4,2.244c-2.74,2.743-2.74,7.187,0,9.93L161.418,68.043z M67.887,157.234l0.2-0.191
	c2.74-2.742,2.74-7.187,0-9.93l-49-48.853c-2.755-2.728-7.193-2.728-9.948,0l-0.2,0.191c-2.74,2.743-2.74,7.188,0,9.931l49,48.852
	C60.694,159.963,65.132,159.963,67.887,157.234z M123.234,100.861l17.957-17.914c5.479-5.478,5.479-14.356,0-19.852L103.34,25.322
	c-5.513-5.467-14.402-5.467-19.914,0L32.295,76.331c-5.474,5.485-5.474,14.367,0,19.852l37.853,37.774
	c5.512,5.467,14.401,5.467,19.913,0l17.948-17.914l73.722,73.539c4.135,4.096,10.796,4.096,14.93,0
	c4.4-4.417,4.4-11.061,0.297-15.182L123.234,100.861L123.234,100.861z M150.479,185.688c3.952,0.194,6.998,3.557,6.803,7.509
	c-0.181,3.68-3.123,6.622-6.803,6.804H6.957c-3.953-0.195-6.999-3.557-6.804-7.51c0.182-3.68,3.124-6.621,6.804-6.803
	c3.957,0.004,7.169-3.199,7.174-7.157l0,0c0-3.948,3.217-7.156,7.174-7.156h114.817c3.966,0,7.184,3.208,7.184,7.156
	C143.305,182.486,146.521,185.688,150.479,185.688L150.479,185.688z M52,89.374l30.548-11.913L71.739,65.878l50.2,1.783
	L93.626,82.374l8.87,9.513l-50.505-2.513H52z"/>
</svg>
