<?xml version="1.0" encoding="utf-8"?>
<!-- Generator: Adobe Illustrator 15.0.0, SVG Export Plug-In . SVG Version: 6.00 Build 0)  -->
<!DOCTYPE svg PUBLIC "-//W3C//DTD SVG 1.1//EN" "http://www.w3.org/Graphics/SVG/1.1/DTD/svg11.dtd">
<svg version="1.1" id="图层_1" xmlns="http://www.w3.org/2000/svg" xmlns:xlink="http://www.w3.org/1999/xlink" x="0px" y="0px"
	 width="220.898px" height="200px" viewBox="0 0 220.898 200" enable-background="new 0 0 220.898 200" xml:space="preserve">
<path fill="#313B3D" d="M170.441,79.021c21.438,5.751,43.48-6.965,49.231-28.403c5.751-21.438-6.965-43.479-28.402-49.23
	c-13.002-3.488-26.887-0.235-36.986,8.665H66.769C50.116-4.623,24.72-3.02,10.045,13.632s-13.073,42.048,3.58,56.724
	c10.099,8.9,23.984,12.153,36.986,8.665c13.032,24.674,31.284,46.106,51.811,50.695c0.863,3.705,1.411,7.442,1.411,10.947
	c0,17.505-13.4,19.147-13.4,19.147h40.189c0,0-13.4-1.643-13.4-19.137c0-3.516,0.548-7.253,1.41-10.958
	C139.158,125.115,157.41,103.695,170.441,79.021z M189.916,22.242c9.903,5.021,13.861,17.12,8.841,27.023
	c-3.698,7.295-11.448,11.623-19.599,10.945c5.368-13.337,9.105-26.642,10.779-37.968H189.916z M40.2,60.284
	c-11.098,0.008-20.102-8.982-20.109-20.08c-0.005-7.596,4.272-14.545,11.057-17.962c1.663,11.326,5.4,24.631,10.769,37.968
	C41.345,60.259,40.773,60.284,40.2,60.284z M86.137,159.811h48.801c8.736,0,15.789,7,15.789,15.769V200h-80.39v-24.421
	c0-8.716,7.137-15.769,15.79-15.769H86.137z M110.537,80.126L91.905,90.442l3.558-21.821L80.39,53.168l20.842-3.179l9.305-19.853
	l9.316,19.853l20.831,3.179L125.61,68.621l3.558,21.811L110.537,80.126z"/>
</svg>
