<?xml version="1.0" encoding="utf-8"?>
<!-- Generator: Adobe Illustrator 15.0.0, SVG Export Plug-In . SVG Version: 6.00 Build 0)  -->
<!DOCTYPE svg PUBLIC "-//W3C//DTD SVG 1.1//EN" "http://www.w3.org/Graphics/SVG/1.1/DTD/svg11.dtd">
<svg version="1.1" id="图层_1" xmlns="http://www.w3.org/2000/svg" xmlns:xlink="http://www.w3.org/1999/xlink" x="0px" y="0px"
	 width="200px" height="200px" viewBox="0 0 200 200" enable-background="new 0 0 200 200" xml:space="preserve">
<path fill="#313B3D" d="M187.483,143.666c1.158,1.084,1.226,2.784,0.233,3.851l-43.426,46.567c-1.061,1.063-2.778,1.077-3.857,0.033
	L128.1,182.608c-1.117-1.003-1.225-2.716-0.241-3.851l43.425-46.566c1.059-1.064,2.777-1.084,3.858-0.041L187.483,143.666z
	 M150.775,69.742l-37.217-10.433c-7.85-2.184-15.467,1.275-17,7.792c-1.5,6.483,3.617,13.517,11.467,15.691l27.666,7.767
	l1.167,40.583c0.033,8.467-5.25,16.833-17.559,17.899l-27.5-0.283l25.5,23.775c2.542,2.375,6.392,2.334,8.65-0.083l39.558-42.417
	c2.5-2.684,1.667-7.434,1.667-7.434L162.4,81.4h-0.084c-0.85-5.117-5.324-9.9-11.541-11.667V69.742z M73.083,77.417l-0.5,18.25
	c4.042-0.475,6.892-1.591,8.583-3.167c1.717-1.625,2.425-3.775,2.159-6.417c-0.086-1.022-0.396-2.012-0.909-2.9
	c-0.486-0.896-1.153-1.683-1.958-2.309c-0.833-0.65-1.934-1.25-3.125-1.825C75.95,78.422,74.531,77.876,73.083,77.417z
	 M57.417,58.642c0.166,1.994,1.134,3.834,2.684,5.1c1.533,1.292,3.825,2.475,6.75,3.425l0.6-17.333
	c-3.717,0.5-6.392,1.508-7.975,3.05c-1.571,1.477-2.334,3.621-2.05,5.758H57.417z M109.017,1.441l-76.4,2.625
	c-10.201,0.367-18.18,8.923-17.833,19.125l3.75,106.834c0.398,10.211,8.953,18.192,19.167,17.883l76.366-2.666
	c4.906-0.145,9.547-2.26,12.875-5.867c3.357-3.599,5.148-8.382,4.983-13.3l-1.149-31.517c0-0.284-22.609-4.6-27.691-8.225
	c-5.784-4.067-9.25-8.35-8.234-15.292c1.65-11.441,11.992-14.583,20.775-13.517c2.834,0.333,14.275,2.983,14.283,3.267
	l-1.725-41.542c-0.158-4.908-2.256-9.553-5.834-12.917C118.708,3.035,113.928,1.281,109.017,1.441z M84.2,39.883
	c1.917,0.117,3.7,0.383,5.375,0.683l0.583,8.442c-3.974-0.737-8.001-1.155-12.042-1.25l-1.333,23.683
	c2.492,0.784,4.942,1.6,7.392,2.567c2.458,0.967,4.7,2.083,6.667,3.5c2.042,1.333,3.65,3.05,5.025,5.025
	c1.333,2.017,2.033,4.417,2.283,7.3c0.217,3.058-0.191,5.825-1.225,8.283c-1.05,2.462-2.642,4.656-4.658,6.417
	c-2.271,1.918-4.86,3.425-7.65,4.45c-3,1.116-6.333,1.917-10,2.408l-0.833,13.184l-7.833,0.45l0.808-13.15
	c-2.792-0.027-5.582-0.137-8.367-0.325c-2.337-0.175-4.663-0.481-6.967-0.917l-0.65-9.049c2.333,0.574,4.85,1.1,7.567,1.399
	c2.725,0.308,5.691,0.417,8.983,0.417l1.292-24.842c-2.417-0.717-4.75-1.575-7.142-2.467c-2.229-0.86-4.344-1.988-6.3-3.358
	c-1.872-1.345-3.486-3.017-4.767-4.934c-1.353-2.094-2.113-4.516-2.2-7.008c-0.178-2.317,0.134-4.645,0.917-6.833
	c0.75-2.225,2.05-4.367,3.9-6.275c2.072-2.083,4.514-3.761,7.2-4.95c2.917-1.333,6.5-2.317,10.6-2.825l0.566-10.5l7.825-0.591
	l-0.6,10.75C80.392,39.617,82.308,39.733,84.2,39.883L84.2,39.883z"/>
</svg>
