<?xml version="1.0" encoding="utf-8"?>
<!-- Generator: Adobe Illustrator 15.0.0, SVG Export Plug-In . SVG Version: 6.00 Build 0)  -->
<!DOCTYPE svg PUBLIC "-//W3C//DTD SVG 1.1//EN" "http://www.w3.org/Graphics/SVG/1.1/DTD/svg11.dtd">
<svg version="1.1" id="图层_1" xmlns="http://www.w3.org/2000/svg" xmlns:xlink="http://www.w3.org/1999/xlink" x="0px" y="0px"
	 width="200px" height="200px" viewBox="0 0 200 200" enable-background="new 0 0 200 200" xml:space="preserve">
<path fill="#313B3D" d="M169.275,185.07H1.007c-0.879-13.611,0.539-22.686,4.239-27.251c6.622-8.167,21.92-14.816,36.651-20.077
	c14.746-5.246,23.111-13.653,23.111-18.375c0-3.261-1.56-10.732-4.537-15.582c-8.734-9.641-14.434-24.471-14.434-41.812
	c0-30.838,14.377-47.044,39.175-47.044s39.161,16.206,39.161,47.044c0,17.609-5.87,32.61-14.846,42.251
	c-2.512,4.678-3.982,9.844-4.31,15.143c0,4.722,8.861,13.129,23.579,18.375c14.717,5.261,31.73,12.775,36.183,20.502
	C169.488,166.1,170.934,175.046,169.275,185.07z M198.695,158.131h-16.645c-0.61-4.82-1.759-9.584-3.886-12.434
	c-5.245-7.033-17.609-14.689-32.724-19.766c-15.1-5.061-24.217-13.156-24.217-17.723c0-3.048,1.561-9.91,4.438-14.589
	c9.217-9.287,15.242-23.763,15.242-40.734c0-17.779-5.273-30.512-14.958-37.884c0.851-0.042,1.702-0.071,2.581-0.071
	c20.699,0,32.681,13.639,32.681,39.6c0,14.816-4.905,27.449-12.392,35.559c-2.098,3.938-3.326,8.279-3.602,12.732
	c0,3.984,7.4,11.06,19.68,15.483c12.278,4.424,25.847,11.3,30.199,17.255C198.865,140.734,200.07,148.264,198.695,158.131
	L198.695,158.131z"/>
</svg>
