<?xml version="1.0" encoding="utf-8"?>
<!-- Generator: Adobe Illustrator 15.0.0, SVG Export Plug-In . SVG Version: 6.00 Build 0)  -->
<!DOCTYPE svg PUBLIC "-//W3C//DTD SVG 1.1//EN" "http://www.w3.org/Graphics/SVG/1.1/DTD/svg11.dtd">
<svg version="1.1" id="图层_1" xmlns="http://www.w3.org/2000/svg" xmlns:xlink="http://www.w3.org/1999/xlink" x="0px" y="0px"
	 width="200px" height="200px" viewBox="0 0 200 200" enable-background="new 0 0 200 200" xml:space="preserve">
<path fill="#313B3D" d="M60.768,181.355c-1.413-0.001-2.506-0.705-2.935-1.772c-0.484-1.208-0.24-2.304,0.65-3.228
	c1.26-1.308,2.548-2.588,3.832-3.871c9.492-9.495,18.98-18.992,28.479-28.479c14.225-14.207,28.452-28.413,42.706-42.591
	c0.697-0.693,0.598-1.001-0.037-1.633c-13.776-13.739-27.525-27.506-41.288-41.258c-9.841-9.833-19.695-19.651-29.541-29.479
	c-1.4-1.397-2.792-2.801-4.178-4.213c-1.328-1.353-1.399-3.124-0.191-4.324c1.178-1.171,2.938-1.13,4.28,0.106
	c0.262,0.242,0.508,0.501,0.76,0.753l77.17,77.192c1.605,1.605,1.609,2.482,0.018,4.076c-25.794,25.8-51.589,51.599-77.374,77.408
	C62.376,180.787,61.588,181.33,60.768,181.355z"/>
</svg>
